# xmcd CD database file
#
# Track frame offsets:
#	150
#	25962
#	55972
#	80267
#	109947
#	138822
#	161742
#	190290
#	207915
#	229497
#	263907
#	281915
#
# Disc length: 4158 seconds
#
# Revision: 0
# Processed by: cddbd v1.5.2PL0 Copyright (c) Steve Scherf et al.
# Submitted via: CDex 1.70beta2
#
DISCID=b0103c0c
DTITLE=Mozayik - Haitian Creole Jazz
DYEAR=2005
DGENRE=Jazz
TTITLE0=Sa Te Bel
TTITLE1=Pen Mayi
TTITLE2=Mireille
TTITLE3=Fifa's Theme
TTITLE4=Second Nature
TTITLE5=Caravan
TTITLE6=African Queen
TTITLE7=Limyè (featuring Beethova Obas)
TTITLE8=Sincerely Yours
TTITLE9=The Journey
TTITLE10=Havana Sunrise
TTITLE11=Moving On
EXTD=YEAR: 2005
EXTT0=
EXTT1=
EXTT2=
EXTT3=
EXTT4=
EXTT5=
EXTT6=
EXTT7=
EXTT8=
EXTT9=
EXTT10=
EXTT11=
PLAYORDER=
